# This file uses centimeters as units for non-parametric coordinates.

mtllib screen.mtl
g default
v -1.000000 -0.500000 0.050000
v -0.921817 -0.500000 0.050000
v 0.921817 -0.500000 0.050000
v 1.000000 -0.500000 0.050000
v -1.000000 -0.442407 0.050000
v -0.921817 -0.442407 0.050000
v 0.921817 -0.442407 0.050000
v 1.000000 -0.442407 0.050000
v -1.000000 0.442407 0.050000
v -0.921817 0.442407 0.050000
v 0.921817 0.442407 0.050000
v 1.000000 0.442407 0.050000
v -1.000000 0.500000 0.050000
v -0.921817 0.500000 0.050000
v 0.921817 0.500000 0.050000
v 1.000000 0.500000 0.050000
v -1.000000 0.500000 -0.050000
v -0.921817 0.500000 -0.050000
v 0.921817 0.500000 -0.050000
v 1.000000 0.500000 -0.050000
v -1.000000 0.442407 -0.050000
v -0.921817 0.442407 -0.118551
v 0.921817 0.442407 -0.118551
v 1.000000 0.442407 -0.050000
v -1.000000 -0.442407 -0.050000
v -0.921817 -0.442407 -0.118551
v 0.921817 -0.442407 -0.118551
v 1.000000 -0.442407 -0.050000
v -1.000000 -0.500000 -0.050000
v -0.921817 -0.500000 -0.050000
v 0.921817 -0.500000 -0.050000
v 1.000000 -0.500000 -0.050000
v -0.921817 -0.442407 -0.022983
v 0.921817 -0.442407 -0.022983
v 0.921817 0.442407 -0.022983
v -0.921817 0.442407 -0.022983
vt 0.375000 0.000000
vt 0.458333 0.000000
vt 0.541667 0.000000
vt 0.625000 0.000000
vt 0.375000 0.083333
vt 0.458333 0.083333
vt 0.541667 0.083333
vt 0.625000 0.083333
vt 0.375000 0.166667
vt 0.458333 0.166667
vt 0.541667 0.166667
vt 0.625000 0.166667
vt 0.375000 0.250000
vt 0.458333 0.250000
vt 0.541667 0.250000
vt 0.625000 0.250000
vt 0.375000 0.500000
vt 0.458333 0.500000
vt 0.541667 0.500000
vt 0.625000 0.500000
vt 0.375000 0.583333
vt 0.458333 0.583333
vt 0.541667 0.583333
vt 0.625000 0.583333
vt 0.375000 0.666667
vt 0.458333 0.666667
vt 0.541667 0.666667
vt 0.625000 0.666667
vt 0.375000 0.750000
vt 0.458333 0.750000
vt 0.541667 0.750000
vt 0.625000 0.750000
vt 0.375000 1.000000
vt 0.458333 1.000000
vt 0.541667 1.000000
vt 0.625000 1.000000
vt 0.875000 0.000000
vt 0.875000 0.083333
vt 0.875000 0.166667
vt 0.875000 0.250000
vt 0.125000 0.000000
vt 0.125000 0.083333
vt 0.125000 0.166667
vt 0.125000 0.250000
vt 0.458333 0.083333
vt 0.541667 0.083333
vt 0.541667 0.166667
vt 0.458333 0.166667
vn 0.000000 0.000000 1.000000
vn 0.000000 0.000000 1.000000
vn 0.000000 0.000000 1.000000
vn 0.000000 0.000000 1.000000
vn 0.000000 0.000000 1.000000
vn 0.000000 0.000000 1.000000
vn 0.000000 0.000000 1.000000
vn 0.000000 0.000000 1.000000
vn 0.000000 0.000000 1.000000
vn 0.000000 0.000000 1.000000
vn 0.000000 0.000000 1.000000
vn 0.000000 0.000000 1.000000
vn 0.000000 0.000000 1.000000
vn 0.000000 0.000000 1.000000
vn 0.000000 0.000000 1.000000
vn 0.000000 0.000000 1.000000
vn 0.000000 0.000000 1.000000
vn 0.000000 0.000000 1.000000
vn 0.000000 0.000000 1.000000
vn 0.000000 0.000000 1.000000
vn 0.000000 1.000000 0.000000
vn 0.000000 1.000000 0.000000
vn 0.000000 1.000000 0.000000
vn 0.000000 1.000000 0.000000
vn 0.000000 1.000000 0.000000
vn 0.000000 1.000000 0.000000
vn 0.000000 1.000000 0.000000
vn 0.000000 1.000000 0.000000
vn -0.352544 0.478583 -0.804159
vn -0.181632 0.641032 -0.745713
vn -0.282728 0.347671 -0.893974
vn -0.527865 0.249677 -0.811800
vn 0.181632 0.641032 -0.745713
vn 0.282728 0.347671 -0.893974
vn 0.352544 0.478583 -0.804159
vn 0.527865 0.249677 -0.811800
vn -0.282728 -0.347672 -0.893974
vn -0.527865 -0.249677 -0.811800
vn 0.282728 -0.347672 -0.893974
vn 0.527865 -0.249678 -0.811800
vn -0.181631 -0.641033 -0.745713
vn -0.352543 -0.478583 -0.804159
vn 0.181631 -0.641033 -0.745712
vn 0.352544 -0.478583 -0.804159
vn 0.000000 -1.000000 0.000000
vn 0.000000 -1.000000 0.000000
vn 0.000000 -1.000000 0.000000
vn 0.000000 -1.000000 0.000000
vn 0.000000 -1.000000 0.000000
vn 0.000000 -1.000000 0.000000
vn 0.000000 -1.000000 0.000000
vn 0.000000 -1.000000 0.000000
vn 1.000000 0.000000 0.000000
vn 1.000000 0.000000 0.000000
vn 1.000000 0.000000 0.000000
vn 1.000000 0.000000 0.000000
vn 1.000000 0.000000 0.000000
vn 1.000000 0.000000 0.000000
vn 1.000000 0.000000 0.000000
vn 1.000000 0.000000 0.000000
vn -1.000000 0.000000 0.000000
vn -1.000000 0.000000 0.000000
vn -1.000000 0.000000 0.000000
vn -1.000000 0.000000 0.000000
vn -1.000000 0.000000 0.000000
vn -1.000000 0.000000 0.000000
vn -1.000000 0.000000 0.000000
vn -1.000000 0.000000 0.000000
vn 0.000000 1.000000 0.000000
vn 0.000000 1.000000 0.000000
vn 0.000000 1.000000 0.000000
vn 0.000000 1.000000 0.000000
vn -1.000000 0.000000 0.000000
vn -1.000000 0.000000 0.000000
vn -1.000000 0.000000 0.000000
vn -1.000000 0.000000 0.000000
vn 0.000000 -1.000000 0.000000
vn 0.000000 -1.000000 0.000000
vn 0.000000 -1.000000 0.000000
vn 0.000000 -1.000000 0.000000
vn 1.000000 0.000000 0.000000
vn 1.000000 0.000000 0.000000
vn 1.000000 0.000000 0.000000
vn 1.000000 0.000000 0.000000
s 1
g screen
usemtl initialShadingGroup
f 1/1/1 2/2/2 6/6/3 5/5/4
f 2/2/2 3/3/5 7/7/6 6/6/3
f 3/3/5 4/4/7 8/8/8 7/7/6
f 5/5/4 6/6/3 10/10/9 9/9/10
s off
f 33/45/11 34/46/12 35/47/13 36/48/14
s 1
f 7/7/6 8/8/8 12/12/15 11/11/16
f 9/9/10 10/10/9 14/14/17 13/13/18
f 10/10/9 11/11/16 15/15/19 14/14/17
f 11/11/16 12/12/15 16/16/20 15/15/19
s 2
f 13/13/21 14/14/22 18/18/23 17/17/24
f 14/14/22 15/15/25 19/19/26 18/18/23
f 15/15/25 16/16/27 20/20/28 19/19/26
s 3
f 17/17/29 18/18/30 22/22/31 21/21/32
f 18/18/30 19/19/33 23/23/34 22/22/31
f 19/19/33 20/20/35 24/24/36 23/23/34
f 21/21/32 22/22/31 26/26/37 25/25/38
f 22/22/31 23/23/34 27/27/39 26/26/37
f 23/23/34 24/24/36 28/28/40 27/27/39
f 25/25/38 26/26/37 30/30/41 29/29/42
f 26/26/37 27/27/39 31/31/43 30/30/41
f 27/27/39 28/28/40 32/32/44 31/31/43
s 4
f 29/29/45 30/30/46 2/34/47 1/33/48
f 30/30/46 31/31/49 3/35/50 2/34/47
f 31/31/49 32/32/51 4/36/52 3/35/50
s 5
f 4/4/53 32/37/54 28/38/55 8/8/56
f 8/8/56 28/38/55 24/39/57 12/12/58
f 12/12/58 24/39/57 20/40/59 16/16/60
s 6
f 29/41/61 1/1/62 5/5/63 25/42/64
f 25/42/64 5/5/63 9/9/65 21/43/66
f 21/43/66 9/9/65 13/13/67 17/44/68
s off
f 6/6/69 7/7/70 34/46/71 33/45/72
f 7/7/73 11/11/74 35/47/75 34/46/76
f 11/11/77 10/10/78 36/48/79 35/47/80
f 10/10/81 6/6/82 33/45/83 36/48/84
