# This file uses centimeters as units for non-parametric coordinates.

mtllib doorFrame.mtl
g default
v -272.276062 -25.405750 11.811115
v -272.276062 341.312988 11.811115
v -272.276062 1.302204 11.811115
v -272.276062 40.037556 11.811115
v -272.276062 326.315582 11.811115
v -197.919846 -25.405750 11.811115
v -197.919846 39.975624 11.811115
v -197.919846 324.201172 11.811115
v -197.919846 341.312988 11.811115
v -272.276062 -25.405750 104.760429
v -197.919846 -25.405750 104.760429
v -197.919846 1.303128 104.643364
v -197.919968 13.025970 104.644142
v -272.276062 326.315582 127.964813
v -197.919846 326.315552 127.964813
v -197.919846 341.312988 127.964813
v -272.276062 341.312988 127.964813
v -197.919846 39.975624 86.598000
v -272.276062 39.975624 86.598015
v -272.276062 -25.405750 132.881729
v -197.919846 -25.405750 132.881729
v -197.919846 1.302204 132.881729
v -272.276062 1.302204 132.881729
v -197.919846 22.435617 103.433556
v -272.276062 22.435617 99.409470
v -197.919968 13.025970 132.881729
v -272.276062 13.025970 132.881729
v -272.276062 13.025970 104.760429
v -272.276062 13.025970 11.811115
v -272.276062 69.230949 11.811115
v -272.276062 69.230949 76.851646
v -197.919968 69.230942 76.851646
v -197.919968 69.230942 11.811115
v -272.276062 117.909943 11.811115
v -272.276062 117.909943 75.611557
v -197.919968 117.909927 75.611557
v -197.919968 117.909927 11.811115
v -272.276062 197.637741 11.811111
v -272.276062 197.637741 75.611557
v -197.919846 197.637711 75.611557
v -197.919846 197.637711 11.811115
v -272.276062 267.243774 11.811115
v -272.276062 267.243774 88.840790
v -197.919846 267.243744 88.840790
v -197.919846 267.243744 11.811115
v -272.276062 -25.405750 -21.037434
v -197.919846 -25.405750 -21.037434
v -272.276062 1.184690 -21.037434
v -272.276062 341.312988 -21.037434
v -197.919846 341.312988 -21.037434
v -272.276062 12.905547 -21.037434
v -272.276062 39.935703 -21.037434
v -272.276062 69.124268 -21.037434
v -272.276062 326.315582 -21.037434
v -272.276062 117.825668 -21.037434
v -272.276062 198.026169 -21.037437
v -272.276062 267.243774 -21.037434
v -197.919846 323.043640 -21.037434
v -197.919846 265.548462 -21.037434
v -197.919846 196.632904 -21.037434
v -197.919846 124.649590 -21.037434
v -197.919846 64.599167 -21.037434
v -197.919846 40.673004 -21.037434
v -197.919846 16.372696 -21.037434
v -197.919846 1.820171 -21.037434
v -197.919846 1.302204 104.931953
v -197.919846 1.610444 11.811115
v -197.919846 13.145891 11.811115
vt 0.932653 0.625356
vt 0.932653 0.598603
vt 0.781601 0.598603
vt 0.781753 0.637100
vt 0.932653 0.965943
vt 0.932653 0.950920
vt 0.781601 0.950920
vt 0.781601 0.965943
vt 0.932653 0.637100
vt 0.781601 0.637100
vt 0.932653 0.891748
vt 0.832480 0.891748
vt 0.745031 0.598603
vt 0.745031 0.625356
vt 0.745031 0.637100
vt 0.824713 0.664095
vt 0.783327 0.646525
vt 0.932653 0.664157
vt 0.838157 0.693400
vt 0.838157 0.693400
vt 0.849684 0.742161
vt 0.849684 0.742161
vt 0.849684 0.822024
vt 0.849684 0.822024
vt 0.932653 0.822024
vt 0.781601 0.950920
vt 0.781601 0.965943
vt 0.832480 0.891748
vt 0.932653 0.965943
vt 0.932653 0.891748
vt 0.932653 0.948802
vt 0.932653 0.693400
vt 0.932653 0.742161
vt 0.932653 0.822024
vt 0.975371 0.965943
vt 0.975371 0.965943
vt 0.975371 0.950920
vt 0.975371 0.947642
vt 0.975371 0.891748
vt 0.975371 0.890050
vt 0.932653 0.693400
vt 0.932653 0.742161
vt 0.975371 0.821018
vt 0.975371 0.822413
vt 0.975371 0.742077
vt 0.975371 0.748912
vt 0.975371 0.693293
vt 0.975371 0.664055
vt 0.975371 0.688760
vt 0.975371 0.636979
vt 0.975371 0.664794
vt 0.975371 0.625239
vt 0.975371 0.598603
vt 0.975371 0.625875
vt 0.975371 0.598603
vt 0.975371 0.640452
vt 0.745031 0.625356
vt 0.745031 0.637100
vt 0.781601 0.598603
vt 0.745031 0.598603
vt 0.783327 0.646525
vt 0.932653 0.598603
vt 0.824713 0.664095
vt 0.781754 0.625357
vt 0.781378 0.625356
vt 0.932653 0.664095
vt 0.932653 0.637220
vt 0.932653 0.625665
vn -0.989185 -0.086566 0.118401
vn -0.906611 0.405557 0.116532
vn -0.643887 0.735366 0.211299
vn -0.643887 0.735366 0.211299
vn -1.000000 0.000000 0.000000
vn -1.000000 0.000000 0.000000
vn -1.000000 0.000000 0.000000
vn -1.000000 0.000000 0.000000
vn -0.954284 -0.296553 0.037404
vn -0.154363 -0.980248 0.123639
vn -0.154363 -0.980248 0.123639
vn -1.000000 -0.000000 0.000000
vn -0.714089 -0.263821 0.648441
vn -0.462872 -0.255591 0.848778
vn -0.536835 0.611752 -0.581006
vn -0.536835 0.611752 -0.581006
vn -0.536835 0.611752 -0.581006
vn -0.536835 0.611752 -0.581006
vn -0.144596 -0.913300 -0.380755
vn -0.144596 -0.913300 -0.380755
vn -0.144596 -0.913300 -0.380755
vn -0.144596 -0.913300 -0.380755
vn -0.717128 0.341203 0.607707
vn -1.000000 -0.000003 0.000000
vn -0.531976 0.505729 0.679146
vn -0.472802 0.737134 0.482796
vn -1.000000 0.000000 0.000000
vn -1.000000 0.000000 0.000000
vn -1.000000 0.000000 0.000000
vn -0.710985 0.121413 0.692646
vn 0.710985 0.121415 0.692646
vn 0.707135 0.009004 0.707021
vn -0.707135 0.009004 0.707021
vn 0.708666 -0.066160 0.702435
vn -0.708666 -0.066160 0.702435
vn -1.000000 0.000000 0.000000
vn 0.000000 0.000000 1.000000
vn 0.462871 -0.255591 0.848778
vn 0.000000 0.000000 1.000000
vn 0.714089 -0.263820 0.648441
vn 0.000000 1.000000 0.000000
vn 0.000000 1.000000 0.000000
vn 0.000000 1.000000 0.000000
vn 0.000000 1.000000 0.000000
vn 1.000000 0.000000 0.000000
vn 1.000000 0.000000 0.000000
vn 1.000000 0.000000 0.000000
vn 1.000000 0.000000 0.000000
vn 1.000000 -0.000002 0.000000
vn 1.000000 -0.000002 0.000000
vn 1.000000 0.000000 0.000000
vn 1.000000 0.000000 0.000000
vn 0.000000 1.000000 0.000000
vn 0.000000 1.000000 0.000000
vn -1.000000 0.000000 0.000000
vn -1.000000 0.000000 0.000000
vn 1.000000 0.000000 0.000000
vn 1.000000 0.000000 0.000000
vn 1.000000 0.000000 0.000000
vn 1.000000 0.000000 0.000000
vn -0.000000 0.000000 -1.000000
vn -0.000000 0.000000 -1.000000
vn -0.000000 0.000000 -1.000000
vn -0.000000 0.000000 -1.000000
vn -1.000000 0.000000 0.000000
vn -0.000000 0.000000 -1.000000
vn -0.000000 0.000000 -1.000000
vn -0.000000 0.000000 -1.000000
vn -0.000000 0.000000 -1.000000
vn -1.000000 -0.000000 0.000000
vn -1.000000 -0.000000 0.000000
vn 1.000000 0.000000 0.000000
vn 1.000000 0.000000 0.000000
vn 1.000000 0.000000 0.000000
vn 1.000000 0.000000 0.000000
vn 1.000000 0.000000 0.000000
vn 1.000000 0.000000 0.000000
vn 1.000000 0.000000 0.000000
vn 1.000000 0.000000 0.000000
vn 0.000000 0.000000 -1.000000
vn 0.000000 0.000000 -1.000000
vn 0.000000 0.000000 -1.000000
vn 0.000000 0.000000 -1.000000
vn -1.000000 0.000000 0.000000
vn -1.000000 0.000000 0.000000
vn 1.000000 0.000000 0.000000
vn 1.000000 0.000000 0.000000
vn 1.000000 0.000000 0.000000
vn 1.000000 0.000000 0.000000
vn 0.000000 -0.000000 -1.000000
vn 0.000000 -0.000000 -1.000000
vn 0.000000 -0.000000 -1.000000
vn 0.000000 -0.000000 -1.000000
vn -1.000000 0.000000 0.000000
vn -1.000000 0.000000 0.000000
vn 0.000000 0.000000 -1.000000
vn 0.000000 0.000000 -1.000000
vn 0.000000 0.000000 -1.000000
vn 0.000000 0.000000 -1.000000
vn -1.000000 0.000000 0.000000
vn 0.000000 0.000000 -1.000000
vn 0.000000 0.000000 -1.000000
vn 0.000000 0.000000 -1.000000
vn 0.000000 0.000000 -1.000000
vn -1.000000 0.000000 0.000000
vn -1.000000 0.000000 0.000000
vn 0.000000 0.000000 -1.000000
vn 0.000000 0.000000 -1.000000
vn 0.000000 0.000000 -1.000000
vn 0.000000 0.000000 -1.000000
vn -0.000000 0.000000 -1.000000
vn -0.000000 0.000000 -1.000000
vn -0.000000 0.000000 -1.000000
vn -0.000000 0.000000 -1.000000
vn 0.000000 0.000000 -1.000000
vn 0.000000 0.000000 -1.000000
vn 0.000000 0.000000 -1.000000
vn 0.000000 0.000000 -1.000000
vn 0.000000 0.000000 1.000000
vn 0.000000 0.000000 1.000000
vn 0.526071 0.507926 0.682100
vn 0.000000 -1.000000 0.000000
vn 0.000000 -1.000000 0.000000
vn 0.000000 -1.000000 0.000000
vn 0.000000 -1.000000 0.000000
vn 0.452140 0.746150 0.488702
vn 0.000000 0.000000 1.000000
vn 0.000000 0.000000 1.000000
vn 0.000000 0.000000 1.000000
vn 0.000000 0.000000 1.000000
vn 0.000000 -1.000000 0.000000
vn 0.000000 -1.000000 0.000000
vn 0.000000 -1.000000 0.000000
vn 0.000000 -1.000000 0.000000
vn 0.000000 -1.000000 0.000000
vn 0.000000 -1.000000 0.000000
vn 0.709892 0.344810 0.614133
vn 1.000000 -0.000013 -0.000005
vn 1.000000 0.000001 0.000000
vn 1.000000 0.000001 0.000000
vn 1.000000 0.000001 0.000000
vn 1.000000 0.000001 0.000000
vn 1.000000 0.000001 0.000000
vn 1.000000 0.000004 0.000000
vn 1.000000 0.000004 0.000000
vn 1.000000 -0.000002 0.000001
vn 1.000000 -0.000002 0.000001
vn 1.000000 -0.000002 0.000001
vn 1.000000 -0.000002 0.000001
vn 1.000000 0.000000 0.000000
vn 1.000000 0.000000 0.000000
vn 1.000000 0.000000 0.000000
vn 1.000000 0.000000 0.000000
vn 1.000000 0.000010 0.000000
vn 1.000000 0.000010 0.000000
vn 1.000000 0.000010 0.000000
vn 1.000000 0.000010 0.000000
vn 1.000000 0.000010 0.000000
vn 1.000000 0.000005 0.000001
vn 1.000000 0.000005 0.000001
vn 1.000000 0.000005 0.000001
vn 1.000000 0.000005 0.000001
vn 1.000000 0.000000 0.000000
vn 1.000000 0.000000 0.000000
vn 1.000000 0.000000 0.000000
vn 1.000000 0.000000 0.000000
vn 1.000000 0.000000 0.000000
vn 1.000000 0.000000 0.000000
vn 1.000000 0.000000 0.000000
vn 1.000000 0.000000 0.000000
vn 1.000000 0.000000 0.000000
vn 1.000000 0.000000 0.000000
vn 1.000000 0.000000 0.000000
vn 1.000000 0.000000 0.000000
vn 1.000000 0.000002 0.000002
vn 1.000000 0.000002 0.000002
vn 1.000000 0.000002 0.000002
vn 1.000000 0.000002 0.000002
vn 1.000000 0.000000 0.000004
vn 1.000000 0.000000 0.000004
vn 1.000000 0.000000 0.000004
vn 1.000000 0.000000 0.000004
vn 1.000000 -0.000001 0.000002
vn 1.000000 -0.000001 0.000002
vn 1.000000 -0.000001 0.000002
vn 1.000000 -0.000001 0.000002
s 1
g doorFrame
usemtl lambert2SG
f 3/1/1 1/2/2 10/3/3 13/4/4
f 2/5/5 5/6/6 14/7/7 17/8/8
f 29/9/9 3/1/1 13/4/10 28/10/11
f 5/6/6 42/11/12 43/12/13 14/7/14
s off
f 13/4/15 10/3/16 20/13/17 23/14/18
f 28/10/19 13/4/20 23/14/21 27/15/22
s 1
f 19/16/23 28/10/24 27/15/25 25/17/26
f 4/18/27 29/9/9 28/10/28 19/16/29
f 31/19/30 32/20/31 36/21/32 35/22/33
f 35/22/33 36/21/32 40/23/34 39/24/35
f 42/11/12 38/25/36 39/24/35 43/12/13
f 17/8/37 14/7/14 15/26/38 16/27/39
f 14/7/14 43/12/13 44/28/40 15/26/38
s 9
f 16/27/41 9/29/42 2/5/43 17/8/44
s 1
f 44/28/40 45/30/45 8/31/46 15/26/38
f 33/32/47 37/33/48 36/21/32 32/20/31
f 36/21/32 37/33/49 41/34/50 40/23/34
f 43/12/13 39/24/35 40/23/34 44/28/40
f 40/23/34 41/34/51 45/30/52 44/28/40
s 9
f 49/35/53 2/5/43 9/29/42 50/36/54
s 1
f 54/37/55 5/6/6 2/5/5 49/35/56
s off
f 9/29/57 16/27/58 15/26/59 8/31/60
f 50/36/61 58/38/62 54/37/63 49/35/64
s 1
f 42/11/12 5/6/6 54/37/55 57/39/65
s off
f 58/38/66 59/40/67 57/39/68 54/37/69
s 1
f 31/19/30 30/41/70 4/18/27 19/16/23
f 35/22/33 34/42/71 30/41/70 31/19/30
f 39/24/35 38/25/36 34/42/71 35/22/33
s off
f 58/38/72 50/36/73 9/29/74 8/31/75
f 59/40/76 58/38/77 8/31/78 45/30/79
f 59/40/80 60/43/81 56/44/82 57/39/83
s 1
f 56/44/84 55/45/85 34/42/71 38/25/36
f 42/11/12 57/39/65 56/44/84 38/25/36
s off
f 41/34/86 60/43/87 59/40/88 45/30/89
f 61/46/90 55/45/91 56/44/92 60/43/93
s 1
f 55/45/85 53/47/94 30/41/70 34/42/71
f 4/18/27 30/41/70 53/47/94 52/48/95
s off
f 62/49/96 53/47/97 55/45/98 61/46/99
s 1
f 4/18/27 52/48/95 51/50/100 29/9/9
s off
f 63/51/101 52/48/102 53/47/103 62/49/104
s 1
f 48/52/105 46/53/106 1/2/2 3/1/1
s off
f 48/52/107 65/54/108 47/55/109 46/53/110
f 64/56/111 51/50/112 52/48/113 63/51/114
s 1
f 3/1/1 29/9/9 51/50/100 48/52/105
s off
f 65/54/115 48/52/116 51/50/117 64/56/118
s 1
f 27/15/25 23/14/119 22/57/120 26/58/121
s off
f 20/13/122 10/3/123 11/59/124 21/60/125
s 1
f 25/17/26 27/15/25 26/58/121 24/61/126
s off
f 21/60/127 22/57/128 23/14/129 20/13/130
s 11
f 11/59/131 10/3/132 1/2/133 6/62/134
f 1/2/133 46/53/135 47/55/136 6/62/134
s 1
f 25/17/26 24/61/126 18/63/137 19/16/23
f 24/61/126 26/58/121 13/4/138 18/63/137
f 32/20/31 31/19/30 19/16/23 18/63/137
s off
f 11/59/139 12/64/140 66/65/141 22/57/142 21/60/143
s 1
f 7/66/144 33/32/145 32/20/31 18/63/137
s off
f 13/4/146 68/67/147 7/66/148 18/63/149
f 6/62/150 67/68/151 12/64/152 11/59/153
f 66/65/154 12/64/155 13/4/156 26/58/157 22/57/158
f 68/67/159 13/4/160 12/64/161 67/68/162
f 67/68/163 6/62/164 47/55/165 65/54/166
f 68/67/167 67/68/168 65/54/169 64/56/170
f 7/66/171 68/67/172 64/56/173 63/51/174
f 33/32/175 7/66/176 63/51/177 62/49/178
f 37/33/179 33/32/180 62/49/181 61/46/182
f 41/34/183 37/33/184 61/46/185 60/43/186
