# This file uses centimeters as units for non-parametric coordinates.

mtllib floor.mtl
g default
v -253.597549 -14.999998 190.000000
v 253.597549 -15.000004 190.000000
v -253.597549 15.000000 190.000000
v 253.597549 15.000000 190.000000
v -253.597549 15.000000 -190.000000
v 253.597549 15.000000 -190.000000
v -253.597549 -14.999998 -190.000000
v 253.597549 -15.000004 -190.000000
vt 0.006909 0.089386
vt 0.655378 0.089386
vt 0.655378 0.089386
vt 0.006909 0.089386
vt 0.655378 0.268624
vt 0.006909 0.268624
vt 0.655378 0.268624
vt 0.006909 0.268624
vt 0.085099 0.346518
vt 0.659303 0.346893
vt 0.659281 0.381332
vt 0.085077 0.380957
vt 0.085077 0.380957
vt 0.659281 0.381332
vt 0.659303 0.346893
vt 0.085099 0.346518
vt 0.152046 0.347925
vt 0.590926 0.347925
vt 0.590926 0.382221
vt 0.152046 0.382221
vt 0.590926 0.347925
vt 0.152046 0.347925
vt 0.152046 0.382221
vt 0.590926 0.382221
vn 0.000000 0.000000 1.000000
vn 0.000000 0.000000 1.000000
vn 0.000000 0.000000 1.000000
vn 0.000000 0.000000 1.000000
vn 0.000000 1.000000 0.000000
vn 0.000000 1.000000 0.000000
vn 0.000000 1.000000 0.000000
vn 0.000000 1.000000 0.000000
vn 0.000000 0.000000 -1.000000
vn 0.000000 0.000000 -1.000000
vn 0.000000 0.000000 -1.000000
vn 0.000000 0.000000 -1.000000
vn -0.000000 -1.000000 0.000000
vn -0.000000 -1.000000 0.000000
vn -0.000000 -1.000000 0.000000
vn -0.000000 -1.000000 0.000000
vn 1.000000 0.000000 0.000000
vn 1.000000 0.000000 0.000000
vn 1.000000 0.000000 0.000000
vn 1.000000 0.000000 0.000000
vn -1.000000 0.000000 0.000000
vn -1.000000 0.000000 0.000000
vn -1.000000 0.000000 0.000000
vn -1.000000 0.000000 0.000000
s off
g freeFloatingFloor
usemtl lambert2SG
f 1/9/1 2/10/2 4/11/3 3/12/4
f 3/4/5 4/3/6 6/5/7 5/6/8
f 5/13/9 6/14/10 8/15/11 7/16/12
f 7/8/13 8/7/14 2/2/15 1/1/16
f 2/17/17 8/18/18 6/19/19 4/20/20
f 7/21/21 1/22/22 3/23/23 5/24/24
