# This file uses centimeters as units for non-parametric coordinates.

mtllib securityCamera.mtl
g default
v -4.989311 0.500000 -0.866025
v -4.989311 -0.500000 -0.866026
v -4.989311 -1.000000 -0.000000
v -4.989311 -0.500000 0.866025
v -4.989311 0.500000 0.866025
v -4.989311 1.000000 0.000000
v -4.989311 1.000000 -1.732051
v -4.989311 -1.000000 -1.732051
v -4.989311 -2.000000 -0.000000
v -4.989311 -1.000000 1.732051
v -4.989311 1.000000 1.732051
v -4.989311 2.000000 0.000000
v -5.989311 1.000000 -1.732051
v -5.989311 -1.000000 -1.732051
v -5.989311 -2.000000 -0.000000
v -5.989311 -1.000000 1.732051
v -5.989311 1.000000 1.732051
v -5.989311 2.000000 0.000000
v -5.989311 0.714496 -1.237543
v -5.989311 -0.714496 -1.237543
v -5.989311 -1.428992 -0.000000
v -5.989311 -0.714496 1.237543
v -5.989311 0.714496 1.237543
v -5.989311 1.428992 0.000000
v -4.989311 -0.000000 0.000000
v -7.974008 0.714496 -1.237543
v -7.974008 -0.714496 -1.237543
v -7.974008 -1.428992 -0.000000
v -7.974008 -0.714496 1.237543
v -7.974008 0.714496 1.237543
v -7.974008 1.428992 0.000000
v -7.974008 0.714496 -1.237543
v -7.974008 -0.714496 -1.237543
v -7.974008 -1.428992 -0.000000
v -7.974008 -0.714496 1.237543
v -7.974008 0.714496 1.237543
v -7.974008 1.428992 0.000000
v -7.974008 0.865908 -1.499796
v -7.974008 -0.865907 -1.499796
v -7.974008 -1.731815 -0.000000
v -7.974008 -0.865908 1.499796
v -7.974008 0.865908 1.499796
v -7.974008 1.731816 0.000000
v -9.090686 1.189225 -2.059796
v -9.090685 -1.189224 -2.059796
v -9.090686 -2.378448 -0.000000
v -9.090686 -1.189224 2.059796
v -9.090686 1.189224 2.059796
v -9.090685 2.378448 0.000000
v -10.301188 1.189225 -2.059796
v -10.301187 -1.189224 -2.059796
v -10.301188 -2.378448 -0.000000
v -10.301188 -1.189224 2.059796
v -10.301188 1.189224 2.059796
v -10.301187 2.378448 0.000000
v -9.961570 0.869474 -1.505972
v -9.961569 -0.869473 -1.505972
v -9.961570 -1.738947 -0.000000
v -9.961570 -0.869473 1.505971
v -9.961570 0.869473 1.505972
v -9.961569 1.738947 -0.000000
v -10.230375 0.527255 -1.002681
v -10.230374 -0.527255 -1.002681
v -10.230375 -1.054510 -0.000000
v -10.230375 -0.527255 1.002681
v -10.230375 0.527255 1.002682
v -10.230374 1.054510 -0.000000
vt 0.539063 0.088592
vt 0.460938 0.088592
vt 0.421875 0.156250
vt 0.460938 0.223908
vt 0.539063 0.223908
vt 0.578125 0.156250
vt 0.578125 0.020934
vt 0.421875 0.020934
vt 0.343750 0.156250
vt 0.421875 0.291566
vt 0.578125 0.291566
vt 0.656250 0.156250
vt 0.375000 0.312500
vt 0.416667 0.312500
vt 0.458333 0.312500
vt 0.500000 0.312500
vt 0.541667 0.312500
vt 0.583333 0.312500
vt 0.625000 0.312500
vt 0.375000 0.688440
vt 0.416667 0.688440
vt 0.458333 0.688440
vt 0.500000 0.688440
vt 0.541667 0.688440
vt 0.583333 0.688440
vt 0.625000 0.688440
vt 0.578125 0.708434
vt 0.421875 0.708434
vt 0.343750 0.843750
vt 0.421875 0.979066
vt 0.578125 0.979066
vt 0.656250 0.843750
vt 0.539063 0.776092
vt 0.460938 0.776092
vt 0.421875 0.843750
vt 0.460938 0.911408
vt 0.539063 0.911408
vt 0.578125 0.843750
vt 0.500000 0.150000
vt 0.539063 0.911408
vt 0.460938 0.911408
vt 0.421875 0.843750
vt 0.460938 0.776092
vt 0.539063 0.776092
vt 0.578125 0.843750
vt 0.539063 0.911408
vt 0.460938 0.911408
vt 0.421875 0.843750
vt 0.460938 0.776092
vt 0.539063 0.776092
vt 0.578125 0.843750
vt 0.000000 0.000000
vt 1.000000 0.000000
vt 1.000000 1.000000
vt 0.000000 1.000000
vt 0.000000 0.000000
vt 1.000000 0.000000
vt 1.000000 1.000000
vt 0.000000 1.000000
vt 0.000000 0.000000
vt 1.000000 0.000000
vt 1.000000 1.000000
vt 0.000000 1.000000
vt 0.000000 0.000000
vt 1.000000 0.000000
vt 1.000000 1.000000
vt 0.000000 1.000000
vt 0.000000 0.000000
vt 1.000000 0.000000
vt 1.000000 1.000000
vt 0.000000 1.000000
vt 0.000000 0.000000
vt 1.000000 0.000000
vt 1.000000 1.000000
vt 0.000000 1.000000
vt 0.000000 0.000000
vt 1.000000 0.000000
vt 1.000000 1.000000
vt 0.000000 1.000000
vt 0.000000 0.000000
vt 1.000000 0.000000
vt 1.000000 1.000000
vt 0.000000 1.000000
vt 0.000000 0.000000
vt 1.000000 0.000000
vt 1.000000 1.000000
vt 0.000000 1.000000
vt 0.000000 0.000000
vt 1.000000 0.000000
vt 1.000000 1.000000
vt 0.000000 1.000000
vt 0.000000 0.000000
vt 1.000000 0.000000
vt 1.000000 1.000000
vt 0.000000 1.000000
vt 0.000000 0.000000
vt 1.000000 0.000000
vt 1.000000 1.000000
vt 0.000000 1.000000
vt 0.000000 0.000000
vt 1.000000 0.000000
vt 1.000000 1.000000
vt 0.000000 1.000000
vt 0.000000 0.000000
vt 1.000000 0.000000
vt 1.000000 1.000000
vt 0.000000 1.000000
vt 0.000000 0.000000
vt 1.000000 0.000000
vt 1.000000 1.000000
vt 0.000000 1.000000
vt 0.000000 0.000000
vt 1.000000 0.000000
vt 1.000000 1.000000
vt 0.000000 1.000000
vt 0.000000 0.000000
vt 1.000000 0.000000
vt 1.000000 1.000000
vt 0.000000 1.000000
vt 0.000000 0.000000
vt 1.000000 0.000000
vt 1.000000 1.000000
vt 0.000000 1.000000
vt 0.000000 0.000000
vt 1.000000 0.000000
vt 1.000000 1.000000
vt 0.000000 1.000000
vt 0.000000 0.000000
vt 1.000000 0.000000
vt 1.000000 1.000000
vt 0.000000 1.000000
vt 0.000000 0.000000
vt 1.000000 0.000000
vt 1.000000 1.000000
vt 0.000000 1.000000
vt 0.000000 0.000000
vt 1.000000 0.000000
vt 1.000000 1.000000
vt 0.000000 1.000000
vt 0.000000 0.000000
vt 1.000000 0.000000
vt 1.000000 1.000000
vt 0.000000 1.000000
vt 0.000000 0.000000
vt 1.000000 0.000000
vt 1.000000 1.000000
vt 0.000000 1.000000
vt 0.000000 0.000000
vt 1.000000 0.000000
vt 1.000000 1.000000
vt 0.000000 1.000000
vt 0.000000 0.000000
vt 1.000000 0.000000
vt 1.000000 1.000000
vt 0.000000 1.000000
vt 0.000000 0.000000
vt 1.000000 0.000000
vt 1.000000 1.000000
vt 0.000000 1.000000
vt 0.000000 0.000000
vt 1.000000 0.000000
vt 1.000000 1.000000
vt 0.000000 1.000000
vt 0.000000 0.000000
vt 1.000000 0.000000
vt 1.000000 1.000000
vt 0.000000 1.000000
vt 0.000000 0.000000
vt 1.000000 0.000000
vt 1.000000 1.000000
vt 0.000000 1.000000
vn 1.000000 -0.000000 0.000000
vn 1.000000 -0.000000 0.000000
vn 1.000000 -0.000000 -0.000000
vn 1.000000 -0.000000 0.000000
vn 1.000000 -0.000000 -0.000000
vn 1.000000 -0.000000 -0.000000
vn 1.000000 -0.000000 -0.000000
vn 1.000000 -0.000000 0.000000
vn 1.000000 -0.000000 -0.000000
vn 1.000000 -0.000000 0.000000
vn 1.000000 -0.000000 0.000000
vn 1.000000 -0.000000 0.000000
vn 0.000000 0.000000 -1.000000
vn 0.000000 0.000000 -1.000000
vn 0.000000 0.000000 -1.000000
vn 0.000000 0.000000 -1.000000
vn -0.000000 -0.866025 -0.500000
vn -0.000000 -0.866025 -0.500000
vn -0.000000 -0.866025 -0.500000
vn -0.000000 -0.866025 -0.500000
vn -0.000000 -0.866025 0.500000
vn -0.000000 -0.866025 0.500000
vn -0.000000 -0.866025 0.500000
vn -0.000000 -0.866025 0.500000
vn -0.000000 -0.000000 1.000000
vn -0.000000 -0.000000 1.000000
vn -0.000000 -0.000000 1.000000
vn -0.000000 -0.000000 1.000000
vn 0.000000 0.866025 0.500000
vn 0.000000 0.866025 0.500000
vn 0.000000 0.866025 0.500000
vn 0.000000 0.866025 0.500000
vn 0.000000 0.866026 -0.500000
vn 0.000000 0.866026 -0.500000
vn 0.000000 0.866026 -0.500000
vn 0.000000 0.866026 -0.500000
vn -1.000000 0.000000 0.000000
vn -1.000000 0.000000 -0.000000
vn -1.000000 0.000000 -0.000000
vn -1.000000 0.000000 0.000000
vn -1.000000 0.000000 0.000000
vn -1.000000 0.000000 0.000000
vn -1.000000 0.000000 0.000000
vn -1.000000 0.000000 0.000000
vn -1.000000 0.000000 0.000000
vn -1.000000 0.000000 0.000000
vn -1.000000 0.000000 0.000000
vn -1.000000 0.000000 0.000000
vn 1.000000 -0.000000 -0.000000
vn 0.000000 0.000000 -1.000000
vn 0.000000 0.000000 -1.000000
vn 0.000000 0.000000 -1.000000
vn 0.000000 0.000000 -1.000000
vn -0.000000 -0.866025 -0.500000
vn -0.000000 -0.866025 -0.500000
vn -0.000000 -0.866025 -0.500000
vn -0.000000 -0.866025 -0.500000
vn -0.000000 -0.866025 0.500000
vn -0.000000 -0.866025 0.500000
vn -0.000000 -0.866025 0.500000
vn -0.000000 -0.866025 0.500000
vn 0.000000 0.000000 1.000000
vn 0.000000 0.000000 1.000000
vn 0.000000 0.000000 1.000000
vn 0.000000 0.000000 1.000000
vn 0.000000 0.866025 0.500000
vn 0.000000 0.866025 0.500000
vn 0.000000 0.866025 0.500000
vn 0.000000 0.866025 0.500000
vn 0.000000 0.866025 -0.500000
vn 0.000000 0.866025 -0.500000
vn 0.000000 0.866025 -0.500000
vn 0.000000 0.866025 -0.500000
vn 0.000000 0.000000 0.000000
vn 0.000000 0.000000 0.000000
vn 0.000000 0.000000 0.000000
vn 0.000000 0.000000 0.000000
vn 0.000000 0.000000 0.000000
vn 0.000000 0.000000 0.000000
vn 0.000000 0.000000 0.000000
vn 0.000000 0.000000 0.000000
vn 0.000000 0.000000 0.000000
vn 0.000000 0.000000 0.000000
vn 0.000000 0.000000 0.000000
vn 0.000000 0.000000 0.000000
vn 0.000000 0.000000 0.000000
vn 0.000000 0.000000 0.000000
vn 0.000000 0.000000 0.000000
vn 0.000000 0.000000 0.000000
vn 0.000000 0.000000 0.000000
vn 0.000000 0.000000 0.000000
vn 0.000000 0.000000 0.000000
vn 0.000000 0.000000 0.000000
vn 0.000000 0.000000 0.000000
vn 0.000000 0.000000 0.000000
vn 0.000000 0.000000 0.000000
vn 0.000000 0.000000 0.000000
vn 1.000000 -0.000000 0.000000
vn 1.000000 -0.000000 0.000000
vn 1.000000 -0.000000 0.000000
vn 1.000000 -0.000000 0.000000
vn 1.000000 -0.000000 -0.000000
vn 1.000000 -0.000000 -0.000000
vn 1.000000 -0.000000 -0.000000
vn 1.000000 -0.000000 -0.000000
vn 1.000000 -0.000000 -0.000000
vn 1.000000 -0.000000 -0.000000
vn 1.000000 -0.000000 -0.000000
vn 1.000000 -0.000000 -0.000000
vn 0.448277 0.000000 -0.893895
vn 0.448277 0.000000 -0.893895
vn 0.230332 0.000000 -0.973112
vn 0.230332 0.000000 -0.973112
vn 0.448277 -0.774135 -0.446947
vn 0.448277 -0.774135 -0.446947
vn 0.230332 -0.842740 -0.486556
vn 0.230332 -0.842740 -0.486556
vn 0.448277 -0.774135 0.446947
vn 0.448277 -0.774135 0.446947
vn 0.230332 -0.842740 0.486556
vn 0.230332 -0.842740 0.486556
vn 0.448277 -0.000000 0.893895
vn 0.448277 -0.000000 0.893895
vn 0.230332 -0.000000 0.973112
vn 0.230332 -0.000000 0.973112
vn 0.448277 0.774135 0.446948
vn 0.448277 0.774135 0.446948
vn 0.230332 0.842740 0.486556
vn 0.230332 0.842740 0.486556
vn 0.448277 0.774135 -0.446947
vn 0.448277 0.774135 -0.446947
vn 0.230332 0.842740 -0.486556
vn 0.230332 0.842740 -0.486556
vn 0.000000 0.000000 -1.000000
vn 0.000000 0.000000 -1.000000
vn -0.000000 -0.866025 -0.500000
vn -0.000000 -0.866025 -0.500000
vn -0.000000 -0.866025 0.500000
vn -0.000000 -0.866025 0.500000
vn -0.000000 -0.000000 1.000000
vn -0.000000 -0.000000 1.000000
vn 0.000000 0.866025 0.500000
vn 0.000000 0.866025 0.500000
vn 0.000000 0.866025 -0.500000
vn 0.000000 0.866025 -0.500000
vn -0.852479 -0.000000 0.522761
vn -0.852479 -0.000000 0.522761
vn -0.852479 -0.000000 0.522761
vn -0.852479 -0.000000 0.522761
vn -0.852479 0.452724 0.261380
vn -0.852479 0.452724 0.261380
vn -0.852479 0.452724 0.261380
vn -0.852479 0.452724 0.261380
vn -0.852479 0.452724 -0.261381
vn -0.852479 0.452724 -0.261381
vn -0.852479 0.452724 -0.261381
vn -0.852479 0.452724 -0.261381
vn -0.852479 0.000000 -0.522761
vn -0.852479 0.000000 -0.522761
vn -0.852479 0.000000 -0.522761
vn -0.852479 0.000000 -0.522761
vn -0.852479 -0.452724 -0.261381
vn -0.852479 -0.452724 -0.261381
vn -0.852479 -0.452724 -0.261381
vn -0.852479 -0.452724 -0.261381
vn -0.852479 -0.452724 0.261381
vn -0.852479 -0.452724 0.261381
vn -0.852479 -0.452724 0.261381
vn -0.852479 -0.452724 0.261381
vn -0.917660 0.191144 -0.348373
vn -0.917660 -0.191144 -0.348374
vn -0.917660 -0.191144 -0.348374
vn -0.917660 0.191144 -0.348373
vn -0.924806 -0.380440 -0.000000
vn -0.924806 -0.380440 -0.000000
vn -0.917660 -0.191144 0.348374
vn -0.917660 -0.191144 0.348374
vn -0.917660 0.191144 0.348374
vn -0.917660 0.191144 0.348374
vn -0.924806 0.380440 0.000000
vn -0.924806 0.380440 0.000000
vn -1.000000 0.000000 -0.000000
vn -1.000000 0.000000 -0.000000
vn -1.000000 0.000000 -0.000000
vn -1.000000 0.000000 -0.000000
vn -1.000000 0.000000 -0.000000
vn -1.000000 0.000000 -0.000000
s 1
g lens securityCamera
usemtl initialShadingGroup
f 1/1/1 2/2/2 8/8/3 7/7/4
f 2/2/2 3/3/5 9/9/6 8/8/3
f 3/3/5 4/4/7 10/10/8 9/9/6
f 4/4/7 5/5/9 11/11/10 10/10/8
f 5/5/9 6/6/11 12/12/12 11/11/10
f 6/6/11 1/1/1 7/7/4 12/12/12
s off
f 7/13/13 8/14/14 14/21/15 13/20/16
f 8/14/17 9/15/18 15/22/19 14/21/20
f 9/15/21 10/16/22 16/23/23 15/22/24
f 10/16/25 11/17/26 17/24/27 16/23/28
f 11/17/29 12/18/30 18/25/31 17/24/32
f 12/18/33 7/19/34 13/26/35 18/25/36
s 2
f 13/31/37 14/30/38 20/36/39 19/37/40
f 14/30/38 15/29/41 21/35/42 20/36/39
f 15/29/41 16/28/43 22/34/44 21/35/42
f 16/28/43 17/27/45 23/33/46 22/34/44
f 17/27/45 18/32/47 24/38/48 23/33/46
f 18/32/47 13/31/37 19/37/40 24/38/48
s 1
f 2/2/2 1/1/1 25/39/49
f 3/3/5 2/2/2 25/39/49
f 4/4/7 3/3/5 25/39/49
f 5/5/9 4/4/7 25/39/49
f 6/6/11 5/5/9 25/39/49
f 1/1/1 6/6/11 25/39/49
s off
f 19/37/50 20/36/51 27/41/52 26/40/53
f 20/36/54 21/35/55 28/42/56 27/41/57
f 21/35/58 22/34/59 29/43/60 28/42/61
f 22/34/62 23/33/63 30/44/64 29/43/65
f 23/33/66 24/38/67 31/45/68 30/44/69
f 24/38/70 19/37/71 26/40/72 31/45/73
f 26/40/74 27/41/75 33/47/76 32/46/77
f 27/41/78 28/42/79 34/48/80 33/47/81
f 28/42/82 29/43/83 35/49/84 34/48/85
f 29/43/86 30/44/87 36/50/88 35/49/89
f 30/44/90 31/45/91 37/51/92 36/50/93
f 31/45/94 26/40/95 32/46/96 37/51/97
s 3
f 26/52/98 27/53/99 39/54/100 38/55/101
f 27/56/99 28/57/102 40/58/103 39/59/100
f 28/60/102 29/61/104 41/62/105 40/63/103
f 29/64/104 30/65/106 42/66/107 41/67/105
f 30/68/106 31/69/108 43/70/109 42/71/107
f 31/72/108 26/73/98 38/74/101 43/75/109
s 4
f 38/76/110 39/77/111 45/78/112 44/79/113
s 5
f 39/80/114 40/81/115 46/82/116 45/83/117
s 6
f 40/84/118 41/85/119 47/86/120 46/87/121
s 7
f 41/88/122 42/89/123 48/90/124 47/91/125
s 8
f 42/92/126 43/93/127 49/94/128 48/95/129
s 9
f 43/96/130 38/97/131 44/98/132 49/99/133
s 4
f 44/100/113 45/101/112 51/102/134 50/103/135
s 5
f 45/104/117 46/105/116 52/106/136 51/107/137
s 6
f 46/108/121 47/109/120 53/110/138 52/111/139
s 7
f 47/112/125 48/113/124 54/114/140 53/115/141
s 8
f 48/116/129 49/117/128 55/118/142 54/119/143
s 9
f 49/120/133 44/121/132 50/122/144 55/123/145
s off
f 50/124/146 51/125/147 57/126/148 56/127/149
f 51/128/150 52/129/151 58/130/152 57/131/153
f 52/132/154 53/133/155 59/134/156 58/135/157
f 53/136/158 54/137/159 60/138/160 59/139/161
f 54/140/162 55/141/163 61/142/164 60/143/165
f 55/144/166 50/145/167 56/146/168 61/147/169
s 10
f 56/148/170 57/149/171 63/150/172 62/151/173
f 57/152/171 58/153/174 64/154/175 63/155/172
f 58/156/174 59/157/176 65/158/177 64/159/175
f 59/160/176 60/161/178 66/162/179 65/163/177
f 60/164/178 61/165/180 67/166/181 66/167/179
f 61/168/180 56/169/170 62/170/173 67/171/181
s off
f 63/155/182 64/159/183 65/163/184 66/167/185 67/171/186 62/151/187
g default
v -5.000000 -2.500000 2.500000
v 5.000000 -2.500000 2.500000
v -5.000000 2.500000 2.500000
v 5.000000 2.500000 2.500000
v -5.000000 2.500000 -2.500000
v 5.000000 2.500000 -2.500000
v -5.000000 -2.500000 -2.500000
v 5.000000 -2.500000 -2.500000
vt 0.375000 0.000000
vt 0.625000 0.000000
vt 0.375000 0.250000
vt 0.625000 0.250000
vt 0.033184 0.519904
vt 0.974232 0.519904
vt 0.974232 0.984381
vt 0.033184 0.984381
vt 0.033184 0.984381
vt 0.974232 0.984381
vt 0.875000 0.000000
vt 0.875000 0.250000
vt 0.125000 0.000000
vt 0.125000 0.250000
vt 0.033372 0.522207
vt 0.974044 0.522207
vt 0.974044 0.985786
vt 0.033372 0.985786
vt 0.033372 0.985786
vt 0.974044 0.985786
vt 0.974044 0.522207
vt 0.033372 0.522207
vt 0.974232 0.519904
vt 0.033184 0.519904
vn 0.000000 0.000000 1.000000
vn 0.000000 0.000000 1.000000
vn 0.000000 0.000000 1.000000
vn 0.000000 0.000000 1.000000
vn 0.000000 1.000000 0.000000
vn 0.000000 1.000000 0.000000
vn 0.000000 1.000000 0.000000
vn 0.000000 1.000000 0.000000
vn 0.000000 0.000000 -1.000000
vn 0.000000 0.000000 -1.000000
vn 0.000000 0.000000 -1.000000
vn 0.000000 0.000000 -1.000000
vn 0.000000 -1.000000 0.000000
vn 0.000000 -1.000000 0.000000
vn 0.000000 -1.000000 0.000000
vn 0.000000 -1.000000 0.000000
vn 1.000000 0.000000 0.000000
vn 1.000000 0.000000 0.000000
vn 1.000000 0.000000 0.000000
vn 1.000000 0.000000 0.000000
vn -1.000000 0.000000 0.000000
vn -1.000000 0.000000 0.000000
vn -1.000000 0.000000 0.000000
vn -1.000000 0.000000 0.000000
s off
g securityCamera body
usemtl initialShadingGroup
f 68/186/188 69/187/189 71/188/190 70/189/191
f 70/176/192 71/177/193 73/178/194 72/179/195
f 72/190/196 73/191/197 75/192/198 74/193/199
f 74/180/200 75/181/201 69/194/202 68/195/203
f 69/173/204 75/182/205 73/183/206 71/175/207
f 74/184/208 68/172/209 70/174/210 72/185/211
